<svg width="40" height="40" viewBox="0 0 40 40" xmlns="http://www.w3.org/2000/svg">
  <!-- 北极星图标 -->
  <defs>
    <linearGradient id="starGradient" x1="0%" y1="0%" x2="100%" y2="100%">
      <stop offset="0%" style="stop-color:#1e3a8a;stop-opacity:1" />
      <stop offset="100%" style="stop-color:#3b82f6;stop-opacity:1" />
    </linearGradient>
  </defs>
  
  <!-- 外圈 -->
  <circle cx="20" cy="20" r="18" fill="none" stroke="url(#starGradient)" stroke-width="1.5" opacity="0.3"/>
  
  <!-- 主要星形 -->
  <path d="M20 4 L22.5 14.5 L32 12 L25 20 L35 22.5 L25 25 L32 28 L22.5 25.5 L20 36 L17.5 25.5 L8 28 L15 20 L5 17.5 L15 15 L8 12 L17.5 14.5 Z" 
        fill="url(#starGradient)" 
        stroke="#1e3a8a" 
        stroke-width="0.5"/>
  
  <!-- 中心点 -->
  <circle cx="20" cy="20" r="2" fill="#ffffff"/>
  
  <!-- 方向指示线 -->
  <line x1="20" y1="8" x2="20" y2="12" stroke="#1e3a8a" stroke-width="2" stroke-linecap="round"/>
  <line x1="20" y1="28" x2="20" y2="32" stroke="#1e3a8a" stroke-width="1" stroke-linecap="round" opacity="0.6"/>
  <line x1="12" y1="20" x2="8" y2="20" stroke="#1e3a8a" stroke-width="1" stroke-linecap="round" opacity="0.6"/>
  <line x1="28" y1="20" x2="32" y2="20" stroke="#1e3a8a" stroke-width="1" stroke-linecap="round" opacity="0.6"/>
</svg>